<svg xmlns="http://www.w3.org/2000/svg" width="24" height="24" viewBox="0 0 24 24" fill="none" data-livestyle-extension="available">
<path fill-rule="evenodd" clip-rule="evenodd" d="M17.1995 7.22414C17.8249 8.12535 18.2057 9.17348 18.3045 10.266V10.2287C18.3959 11.1604 18.2787 12.1007 17.9615 12.9814C17.6443 13.8622 17.135 14.6612 16.4705 15.3207L12.5341 19.2795C12.4648 19.3494 12.3824 19.4048 12.2915 19.4427C12.2007 19.4805 12.1032 19.5 12.0048 19.5C11.9064 19.5 11.8089 19.4805 11.7181 19.4427C11.6272 19.4048 11.5448 19.3494 11.4755 19.2795L7.52414 15.3207C6.85972 14.6612 6.35042 13.8622 6.0332 12.9814C5.71598 12.1007 5.59879 11.1604 5.69013 10.2287C5.78324 9.2909 6.0829 8.38536 6.56758 7.57713C7.05226 6.76891 7.70993 6.07806 8.49334 5.55421C9.40781 4.94836 10.4639 4.59026 11.5583 4.51495C12.6526 4.43965 13.7478 4.64971 14.7367 5.12459C15.7255 5.59948 16.5741 6.32292 17.1995 7.22414ZM11.9938 13.1475C13.2882 13.1475 14.3376 12.0981 14.3376 10.8037C14.3376 9.50929 13.2882 8.45996 11.9938 8.45996C10.6994 8.45996 9.65006 9.50929 9.65006 10.8037C9.65006 12.0981 10.6994 13.1475 11.9938 13.1475Z" fill="#515164"/>
</svg>