<svg xmlns="http://www.w3.org/2000/svg" width="24" height="24" viewBox="0 0 24 24" fill="none" data-livestyle-extension="available">
<path fill-rule="evenodd" clip-rule="evenodd" d="M16.7951 12.0599C17.5078 11.989 18.2847 11.7395 18.7762 11.5289C18.8211 11.5096 18.8678 11.4948 18.9156 11.4846C19.1234 11.4404 19.3079 11.394 19.4717 11.3464C19.1798 7.96564 16.6451 5.22627 13.3629 4.62363C13.2908 4.70027 13.2216 4.77636 13.1551 4.85065C13.114 4.89646 13.0716 4.94439 13.0289 4.99262L13.0289 4.99264C12.9073 5.13002 12.7837 5.26973 12.684 5.3694C12.5584 5.49503 12.4001 5.74762 12.2637 6.11159C12.1316 6.46434 12.0413 6.86536 12.0141 7.23935C11.9861 7.62481 12.0295 7.91695 12.104 8.09099C12.165 8.2334 12.2128 8.24082 12.2571 8.24699C13.0249 8.35388 13.6232 8.56409 14.0825 8.88862C14.5541 9.22188 14.8236 9.63646 14.9925 10.0496C15.1205 10.3629 15.1985 10.7037 15.259 10.9686C15.2719 11.0248 15.284 11.0776 15.2956 11.126C15.3707 11.4393 15.439 11.6434 15.5449 11.8022C15.5998 11.8846 15.7022 11.9683 15.9173 12.024C16.1406 12.0817 16.439 12.0954 16.7951 12.0599ZM4.49977 12.0001C4.49977 8.04783 7.55681 4.8096 11.4353 4.521C11.1915 4.82937 11.0004 5.20813 10.8591 5.58537C10.679 6.06594 10.5561 6.60726 10.5181 7.13053C10.4808 7.64233 10.52 8.20235 10.7251 8.68131C10.9437 9.1919 11.3723 9.63829 12.0503 9.73267C12.666 9.81839 13.0131 9.96967 13.2168 10.1136C13.4082 10.2489 13.5192 10.4098 13.604 10.6172C13.6814 10.8065 13.7259 10.9989 13.7849 11.2537L13.7849 11.2538L13.785 11.2542C13.801 11.3232 13.818 11.3967 13.837 11.4759C13.9175 11.8116 14.0337 12.2396 14.2968 12.6342C14.6108 13.1053 15.0773 13.356 15.5415 13.4761C15.9975 13.5942 16.4889 13.5978 16.9437 13.5526C17.8182 13.4655 18.7116 13.181 19.2987 12.9365C19.3484 12.9255 19.3975 12.9144 19.446 12.903C19 16.6194 15.8363 19.5001 11.9998 19.5001C11.9035 19.5001 11.8076 19.4983 11.7122 19.4947C11.9033 18.8515 12.2218 17.7723 12.4278 16.7194C12.5432 16.1292 12.63 15.5154 12.6326 14.9718C12.6349 14.4735 12.5713 13.845 12.2039 13.3985C11.7338 12.8273 11.043 12.6667 10.4103 12.6673C9.7759 12.6679 9.0689 12.8272 8.37527 13.0429C7.30685 13.3752 6.12136 13.8921 5.08039 14.3461L5.08036 14.3461C5.01984 14.3725 4.95981 14.3987 4.90032 14.4246C4.64066 13.6641 4.49977 12.8485 4.49977 12.0001ZM10.196 19.2818C8.20928 18.7913 6.53448 17.5089 5.52566 15.7887C5.59552 15.7583 5.66565 15.7278 5.73599 15.6971L5.73603 15.6971C6.76415 15.249 7.83926 14.7805 8.82067 14.4753C9.46187 14.2759 10.0004 14.1677 10.4117 14.1673C10.8248 14.1669 10.98 14.2719 11.0456 14.3517L11.0447 14.3505C11.0446 14.3505 11.0448 14.3507 11.045 14.3511C11.0482 14.3564 11.071 14.3943 11.0928 14.4919C11.118 14.6051 11.1335 14.7618 11.1326 14.9647C11.1307 15.372 11.0634 15.8805 10.9557 16.4314C10.7603 17.43 10.4537 18.4631 10.2627 19.1064L10.2293 19.2193C10.2182 19.2404 10.2071 19.2612 10.196 19.2818Z" fill="#515164"/>
</svg>